<svg width="100" height="100" viewBox="0 0 100 100" fill="none" xmlns="http://www.w3.org/2000/svg">
<g id="circle-plus">
<path id="icon" fill-rule="evenodd" clip-rule="evenodd" d="M84.375 50C84.375 68.9848 68.9848 84.375 50 84.375C31.0152 84.375 15.625 68.9848 15.625 50C15.625 31.0152 31.0152 15.625 50 15.625C68.9848 15.625 84.375 31.0152 84.375 50ZM93.75 50C93.75 74.1624 74.1624 93.75 50 93.75C25.8375 93.75 6.25 74.1624 6.25 50C6.25 25.8375 25.8375 6.25 50 6.25C74.1624 6.25 93.75 25.8375 93.75 50ZM54.6875 34.375C54.6875 31.7862 52.5888 29.6875 50 29.6875C47.4112 29.6875 45.3125 31.7862 45.3125 34.375V45.3125H34.375C31.7862 45.3125 29.6875 47.4112 29.6875 50C29.6875 52.5888 31.7862 54.6875 34.375 54.6875H45.3125V65.625C45.3125 68.2138 47.4112 70.3125 50 70.3125C52.5888 70.3125 54.6875 68.2138 54.6875 65.625V54.6875H65.625C68.2138 54.6875 70.3125 52.5888 70.3125 50C70.3125 47.4112 68.2138 45.3125 65.625 45.3125H54.6875V34.375Z" fill="#737373"/>
</g>
</svg>
