<svg width="37" height="37" viewBox="0 0 37 37" fill="none" xmlns="http://www.w3.org/2000/svg">
<ellipse cx="9.55777" cy="16.073" rx="9.55777" ry="16.073" transform="matrix(0.644564 0.76455 -0.78814 0.615496 21.1328 -2.95068)" fill="white"/>
<path d="M4.43407 29.8102C10.5984 37.122 21.893 38.1315 29.6612 32.0649C37.4294 25.9983 38.7297 15.153 32.5653 7.84118C30.4425 5.32322 27.7113 3.55266 24.7252 2.56107C25.7456 2.95984 26.6185 3.55612 27.2936 4.35681C30.696 8.39262 27.7826 16.0934 20.7864 21.5571C13.7902 27.0208 5.36045 28.1783 1.958 24.1425C1.34918 23.4204 0.942598 22.5809 0.725411 21.6578C1.16219 24.5621 2.38621 27.3811 4.43407 29.8102Z" fill="white"/>
<path d="M20.3394 20.9903C17.3279 23.3421 14.0264 24.7514 11.1413 25.1475C8.24367 25.5454 5.86552 24.9161 4.53164 23.3339C3.19775 21.7517 3.04772 19.3822 4.04914 16.7352C5.04625 14.0996 7.15918 11.2805 10.1707 8.92866C13.1821 6.57687 16.4837 5.16758 19.3688 4.77141C22.2664 4.37352 24.6445 5.0029 25.9784 6.58509C27.3123 8.16729 27.4623 10.5367 26.4609 13.1837C25.4638 15.8194 23.3508 18.6385 20.3394 20.9903Z" fill="white" stroke="#E02A26"/>
<path d="M6.31003 28.6157C11.7199 35.0327 21.6323 35.9186 28.4498 30.5945C35.2673 25.2704 36.4084 15.7524 30.9985 9.33538C29.1355 7.12558 26.7385 5.57171 24.1179 4.70147C25.0134 5.05144 25.7795 5.57474 26.3719 6.27744C29.3579 9.81933 26.8011 16.5777 20.6611 21.3727C14.5211 26.1677 7.12303 27.1836 4.13699 23.6417C3.60268 23.0079 3.24585 22.2712 3.05524 21.461C3.43857 24.0099 4.51279 26.4839 6.31003 28.6157Z" fill="#E02A26"/>
<ellipse cx="6.14126" cy="10.3276" rx="6.14126" ry="10.3276" transform="matrix(0.644564 0.76455 -0.78814 0.615496 18.9805 3.36719)" fill="#737373"/>
<path d="M33.3093 13.1099C32.8604 23.4935 23.972 31.779 13.073 31.779C11.8675 31.779 10.6866 31.6777 9.53906 31.4833C15.1092 35.1522 22.8306 34.9827 28.4497 30.5945C34.0243 26.241 35.8036 19.0833 33.3093 13.1099Z" fill="#B2211E"/>
</svg>
