<svg width="16" height="17" viewBox="0 0 16 17" fill="none" xmlns="http://www.w3.org/2000/svg">
<ellipse cx="3.84087" cy="6.45533" rx="3.84087" ry="6.45533" transform="matrix(0.643501 0.765445 -0.787297 0.616574 9.04443 -0.302246)" fill="white"/>
<path d="M2.34467 12.8786C4.81777 15.8203 9.34912 16.2265 12.4657 13.7857C15.5823 11.3449 16.1039 6.98155 13.6308 4.03979C12.7792 3.02674 11.6834 2.31439 10.4854 1.91545C10.8948 2.07589 11.245 2.31579 11.5158 2.63793C12.8808 4.26165 11.712 7.35991 8.90516 9.5581C6.0983 11.7563 2.71633 12.222 1.35128 10.5983C1.10702 10.3077 0.943903 9.96999 0.856769 9.5986C1.032 10.7671 1.52307 11.9013 2.34467 12.8786Z" fill="#E02A26"/>
<ellipse cx="2.81207" cy="4.72623" rx="2.81207" ry="4.72623" transform="matrix(0.643501 0.765445 -0.787297 0.616573 8.13672 1.30371)" fill="#737373"/>
<path d="M14.6872 5.77002C14.482 10.5302 10.4187 14.3286 5.43629 14.3286C4.88523 14.3286 4.3454 14.2821 3.8208 14.193C6.36713 15.875 9.89694 15.7972 12.4657 13.7855C15.0141 11.7898 15.8274 8.50844 14.6872 5.77002Z" fill="#B2211E"/>
</svg>
